<svg width="675" height="722" viewBox="0 0 675 722" fill="none" xmlns="http://www.w3.org/2000/svg">
<g id="ilustracionAnimacion" clip-path="url(#clip0_2_2)" filter="url(#filter0_d_2_2)">
<path id="Vector" d="M116.227 541.943C116.227 541.943 118.572 491.5 166.652 497.363Z" fill="#E6E6E6"/>
<path id="Vector_2" d="M115.663 712.87C115.602 712.342 109.928 659.779 132.905 631.962C141.386 621.696 152.749 615.946 166.679 614.875L166.832 616.856C153.462 617.885 142.564 623.392 134.441 633.224C112 660.386 117.578 712.126 117.636 712.645L115.663 712.87Z" fill="#E6E6E6"/>
<path id="Vector_3" d="M115.72 490.367H113.72V711.367H115.72V490.367Z" fill="#E6E6E6"/>
<path id="Vector_4" d="M166.755 632.179C175.765 632.179 183.069 624.875 183.069 615.865C183.069 606.856 175.765 599.552 166.755 599.552C157.746 599.552 150.442 606.856 150.442 615.865C150.442 624.875 157.746 632.179 166.755 632.179Z" fill="#E6E6E6"/>
<path id="Vector_5" d="M421.282 307.141C428.366 307.141 434.109 301.398 434.109 294.313C434.109 287.229 428.366 281.486 421.282 281.486C414.197 281.486 408.454 287.229 408.454 294.313C408.454 301.398 414.197 307.141 421.282 307.141Z" fill="#2F2E41"/>
<path id="Vector_6" d="M404.179 287.365C404.179 284.194 405.353 281.136 407.475 278.78C409.597 276.424 412.516 274.938 415.67 274.607C415.226 274.561 414.78 274.538 414.334 274.538C410.932 274.538 407.669 275.889 405.263 278.295C402.858 280.7 401.506 283.963 401.506 287.365C401.506 290.767 402.858 294.03 405.263 296.436C407.669 298.841 410.932 300.193 414.334 300.193C414.78 300.192 415.226 300.169 415.67 300.123C412.516 299.793 409.597 298.306 407.475 295.95C405.353 293.594 404.179 290.536 404.179 287.365V287.365Z" fill="#2F2E41"/>
<path id="Vector_7" d="M435.732 333.195C447.539 333.195 457.111 327.452 457.111 320.367C457.111 313.283 447.539 307.54 435.732 307.54C423.925 307.54 414.353 313.283 414.353 320.367C414.353 327.452 423.925 333.195 435.732 333.195Z" fill="#2F2E41"/>
<path id="Vector_8" d="M668 711.268H4V713.509H668V711.268Z" fill="#3F3D56"/>
<g id="Woman">
<path id="Vector_9" d="M357.467 525.791L338.715 578.44L358.909 586.374L393.528 517.858L357.467 525.791Z" fill="#FFB9B9"/>
<path id="Vector_10" d="M423.098 527.234C423.098 527.234 460.601 579.883 462.765 580.604C464.929 581.325 480.074 568.343 480.074 568.343C480.074 568.343 461.322 522.906 455.553 520.743C449.783 518.579 423.098 527.234 423.098 527.234Z" fill="#FFB9B9"/>
<path id="Vector_11" d="M335.83 569.064L306.26 646.235C306.26 646.235 308.424 650.562 306.26 651.283C304.096 652.005 299.048 663.544 299.048 664.265C299.048 664.987 293.999 665.708 293.999 667.872C293.999 670.035 289.672 687.345 289.672 687.345C289.672 687.345 297.605 704.654 302.654 699.605C307.703 694.557 309.866 684.46 309.866 684.46L317.078 665.708C317.078 665.708 316.357 655.611 321.406 654.168C326.454 652.726 329.339 634.695 329.339 634.695C329.339 634.695 337.272 626.762 338.715 624.598C340.157 622.435 365.4 584.21 363.236 583.489C361.073 582.768 335.83 569.064 335.83 569.064Z" fill="#2F2E41"/>
<path id="Vector_12" d="M458.438 579.161L480.074 564.737C480.074 564.737 517.578 633.253 517.578 634.695C517.578 636.138 516.135 640.465 517.578 641.908C519.02 643.35 531.281 666.429 539.214 668.593C547.148 670.756 548.59 679.411 542.099 680.854C535.608 682.296 526.953 685.902 524.79 680.854C523.525 677.883 522.08 674.993 520.462 672.199C520.462 672.199 513.25 674.363 512.529 672.92C511.697 670.795 510.975 668.629 510.365 666.429C510.365 666.429 504.596 656.332 504.596 652.726C504.596 649.12 500.99 648.399 500.99 648.399C500.99 648.399 493.056 629.647 488.008 626.762C482.959 623.877 478.632 609.453 478.632 609.453L458.438 579.161Z" fill="#2F2E41"/>
<path id="Vector_13" d="M432.474 359.189C444.025 359.189 453.389 349.825 453.389 338.274C453.389 326.723 444.025 317.359 432.474 317.359C420.922 317.359 411.558 326.723 411.558 338.274C411.558 349.825 420.922 359.189 432.474 359.189Z" fill="#FFB9B9"/>
<path id="Vector_14" d="M370.449 465.209C370.449 465.209 339.493 547.443 343.821 547.443C348.148 547.443 467.864 550.048 471.47 544.278C475.076 538.508 440.407 481.076 438.965 480.354C437.522 479.633 370.449 465.209 370.449 465.209Z" fill="#2F2E41"/>
<path id="Vector_15" d="M339.436 293.558L317.8 260.382C317.8 260.382 323.15 225.58 315.938 232.071C308.726 238.562 306.443 264.775 306.443 264.775L331.503 302.934L339.436 293.558Z" fill="#FFB9B9"/>
<path id="Vector_16" d="M535.608 354.141L555.081 352.698C555.081 352.698 578.16 328.177 579.603 336.11C581.045 344.044 560.851 361.353 560.851 361.353L534.166 364.238L535.608 354.141Z" fill="#FFB9B9"/>
<path id="Vector_17" d="M393.528 361.353V354.141C393.528 354.141 374.776 341.88 375.497 339.716C376.218 337.553 374.055 336.11 374.055 336.11C374.055 336.11 371.891 333.225 371.891 332.504C371.891 331.783 369.006 331.062 369.006 331.062L350.976 310.146C350.976 310.146 340.879 289.952 338.715 290.673C336.551 291.395 325.012 295.722 326.454 298.607C327.897 301.492 368.285 363.517 368.285 363.517C368.285 363.517 370.449 377.22 374.055 377.22C377.661 377.22 393.528 361.353 393.528 361.353Z" fill="#3F3D56"/>
<path id="Vector_18" d="M441.849 370.008C441.849 370.008 457.716 369.286 458.438 370.008C459.159 370.729 469.256 370.008 469.256 370.008C469.256 370.008 496.662 363.517 498.826 361.353C500.989 359.189 537.051 349.813 538.493 354.141C539.935 358.468 543.541 367.123 539.935 368.565C536.329 370.008 438.965 394.529 438.965 394.529L441.849 370.008Z" fill="#3F3D56"/>
<path id="Vector_19" d="M411.198 353.78C411.198 353.78 404.707 358.829 403.264 359.55C401.822 360.271 393.167 353.059 391.725 353.059C390.282 353.059 371.531 374.696 371.531 374.696C371.531 374.696 375.015 378.71 371.531 399.217C370.224 406.908 367.631 439.789 367.631 444.117C367.631 448.444 353.5 459.078 366.482 468.454C379.464 477.83 441.489 487.927 442.21 482.157C442.931 476.388 434.998 461.242 438.604 454.03C442.21 446.818 442.21 420.132 442.21 420.132L446.537 392.005L450.143 369.647C450.143 369.647 433.195 364.959 431.752 364.959C430.31 364.959 423.819 375.056 411.198 353.78Z" fill="#3F3D56"/>
<path id="Vector_20" d="M417.328 342.601C417.328 342.601 407.231 364.959 404.346 365.68C401.461 366.401 428.146 379.383 428.146 379.383C428.146 379.383 433.195 351.977 435.358 350.535C437.522 349.092 417.328 342.601 417.328 342.601Z" fill="#FFB9B9"/>
<path id="Vector_21" d="M432.126 357.94C449.246 357.94 463.125 344.061 463.125 326.94C463.125 309.82 449.246 295.941 432.126 295.941C415.005 295.941 401.126 309.82 401.126 326.94C401.126 344.061 415.005 357.94 432.126 357.94Z" fill="#2F2E41"/>
</g>
<g id="World">
<path id="Vector_22" d="M670.856 180.387V181.467C670.832 184.179 670.754 186.878 670.623 189.566C668.284 235.558 648.443 278.913 615.167 310.747C581.891 342.582 537.699 360.484 491.649 360.785C445.599 361.086 401.177 343.764 367.487 312.368C333.798 280.971 313.391 237.879 310.451 191.922C310.205 188.105 310.082 184.26 310.082 180.387C310.018 143.026 321.613 106.575 343.252 76.1183C344.982 73.6641 346.782 71.2548 348.651 68.8906C349.939 67.2462 351.265 65.6387 352.602 64.0435C383.053 27.969 426.43 5.26662 473.427 0.806868C520.425 -3.65289 567.298 10.4853 603.99 40.1882C606.162 41.943 608.298 43.7591 610.384 45.6121C612.053 47.0969 613.693 48.6145 615.304 50.1647C647.045 80.5253 666.581 121.449 670.23 165.22C670.648 170.226 670.856 175.282 670.856 180.387Z" fill="#6C63FF"/>
<path id="Vector_23" d="M348.651 68.8906C348.739 68.9277 348.822 68.9773 348.896 69.0379C349.866 69.8355 348.651 71.3694 348.798 72.6333C348.97 74.2531 351.13 74.609 352.762 74.7685C354.394 74.9403 356.455 76.2533 355.682 77.7013C351.584 79.1125 347.436 77.7259 343.252 76.1183C321.613 106.575 310.018 143.026 310.082 180.387C310.082 184.265 310.205 188.11 310.451 191.922C310.794 192.172 311.169 192.375 311.567 192.523C312.794 192.989 314.218 192.904 315.347 193.566C316.243 194.094 316.844 195.026 317.74 195.517C320.304 196.916 323.863 194.229 326.256 195.898C326.874 196.461 327.46 197.059 328.011 197.689C330.219 199.604 333.852 198.315 336.404 199.751C338.049 200.671 338.895 202.512 339.779 204.181C341.975 208.353 345.534 212.452 350.234 212.783C351.716 212.715 353.201 212.764 354.676 212.93C356.124 213.261 357.548 214.525 357.314 215.986C356.909 218.501 358.149 221.25 357.818 223.766C357.216 228.367 350.7 230.38 350.148 234.982C350.146 235.994 350.089 237.006 349.976 238.013C349.682 239.215 348.774 240.197 348.455 241.399C347.841 243.67 349.473 245.94 351.252 247.461C353.044 248.995 355.179 250.321 356.161 252.456C357.192 254.726 356.689 257.364 357.02 259.831C357.756 265.218 362.407 269.206 367.193 271.783C368.726 272.424 370.088 273.416 371.169 274.679C372.396 276.458 372.273 278.802 372.69 280.925C373.696 286.116 378.065 290.398 378.188 295.687C378.274 299.455 376.188 302.866 374.936 306.412C373.648 310.13 373.265 314.101 373.819 317.996C380.816 323.931 388.253 329.325 396.067 334.133C396.492 333.505 396.803 332.807 396.987 332.071C397.136 331.258 397.033 330.419 396.694 329.665C396.354 328.911 395.793 328.278 395.085 327.85C396.404 327.352 397.604 326.583 398.607 325.592C399.1 325.085 399.425 324.439 399.54 323.741C399.654 323.044 399.551 322.328 399.245 321.69C401.405 321.96 403.97 322.095 405.393 320.438C406.534 319.113 406.461 317.125 406.007 315.444C405.553 313.75 404.792 312.118 404.779 310.364C409.783 310.607 414.799 310.439 419.775 309.861C419.055 307.433 417.417 305.382 415.21 304.142C417.468 303.762 419.517 301.062 420.229 298.89C420.844 296.674 420.878 294.337 420.327 292.104C420.156 291.53 420.131 290.923 420.253 290.337C420.616 289.559 421.255 288.942 422.045 288.607C425.776 286.459 429.506 284.316 433.236 282.177C433.902 281.841 434.507 281.397 435.028 280.864C436.194 279.477 436.022 277.403 435.421 275.697C434.819 273.992 433.862 272.384 433.629 270.593C432.942 265.23 438.685 261.377 440.624 256.321C441.283 254.303 441.639 252.198 441.679 250.075C441.839 247.793 441.851 245.154 440.108 243.694C438.427 242.283 435.813 242.602 434.059 241.289C432.451 240.086 431.899 237.767 430.144 236.798C428.549 235.914 426.561 236.479 424.782 236.061C421.665 235.337 419.701 231.742 416.511 231.411C414.719 231.214 412.682 232.098 411.21 231.055C409.909 230.122 409.86 228.269 409.614 226.698C409.179 224.252 408.004 221.997 406.249 220.238C404.494 218.479 402.243 217.299 399.797 216.857C397.944 216.562 395.932 216.673 394.349 215.654C392.754 214.624 392.03 212.697 390.766 211.261C388.753 208.967 385.563 208.144 382.581 207.445C378.531 206.5 374.486 205.551 370.445 204.598C368.297 204.083 365.524 203.813 364.358 205.702C364.013 206.421 363.773 207.186 363.646 207.973C363.208 209.389 362.334 210.631 361.148 211.521C359.963 212.411 358.527 212.904 357.044 212.93C356.03 211.197 354.386 209.923 352.455 209.372C351.193 209.16 349.947 208.865 348.725 208.488C348.086 208.175 347.518 207.735 347.055 207.195C346.593 206.656 346.245 206.027 346.034 205.348C345.822 204.669 345.752 203.954 345.826 203.247C345.901 202.54 346.119 201.856 346.467 201.236C347.162 199.99 347.43 198.551 347.228 197.139C347.027 195.727 346.367 194.42 345.35 193.419C343.288 191.566 340.306 191.112 337.533 191.296C336.809 189.713 338.024 187.934 339.325 186.78C340.638 185.639 342.221 184.51 342.503 182.792C342.957 180.092 339.509 178.043 336.895 178.841C334.281 179.651 332.612 182.191 331.508 184.694C330.972 186.171 330.242 187.57 329.336 188.854C328.872 189.489 328.241 189.984 327.513 190.282C326.786 190.581 325.989 190.673 325.213 190.547C323.053 189.995 322.231 187.431 321.752 185.271C320.985 182.384 320.598 179.41 320.599 176.423C320.618 173.407 321.816 170.518 323.937 168.373C327.508 165.085 333.005 165.404 337.828 165.931C337.311 165.242 337.064 164.389 337.131 163.53C337.199 162.672 337.578 161.868 338.196 161.268C338.841 160.695 339.617 160.288 340.455 160.083C341.293 159.878 342.169 159.88 343.006 160.09C344.46 160.391 345.77 161.174 346.724 162.311C348.099 163.98 348.491 166.25 349.522 168.14C350.565 170.042 352.897 171.662 354.799 170.644C356.455 169.76 356.713 167.478 356.308 165.649C355.891 163.833 355.02 162.054 355.167 160.188C355.449 156.642 359.143 154.495 362.395 153.034C365.647 151.574 369.365 149.598 369.88 146.064C369.904 145.377 370.036 144.698 370.273 144.052C370.633 143.475 371.136 143.002 371.733 142.678C381.219 136.407 390.876 130.05 401.724 126.627C402.288 126.443 402.35 126.639 402.926 126.504C403.736 126.038 403.196 124.749 402.423 124.234C401.65 123.718 400.619 123.314 400.423 122.405C400.288 121.743 400.681 121.08 400.779 120.405C400.805 119.998 400.73 119.59 400.561 119.218C400.393 118.846 400.136 118.521 399.812 118.271C399.489 118.022 399.109 117.855 398.706 117.787C398.304 117.718 397.89 117.749 397.503 117.877C396.631 116.724 398.349 115.386 399.748 114.994C403.937 113.846 408.235 113.147 412.572 112.908C413.072 112.825 413.586 112.911 414.032 113.153C414.351 113.461 414.54 113.879 414.56 114.321C414.581 114.764 414.431 115.198 414.142 115.534C413.552 116.189 412.898 116.785 412.191 117.313C411.487 117.997 410.984 118.861 410.738 119.811C410.491 120.761 410.51 121.76 410.792 122.7C413.063 123.853 415.517 125.044 418.032 124.639C420.536 124.234 422.757 121.411 421.579 119.166C420.487 117.067 417.186 116.589 416.621 114.294C415.959 111.607 419.763 109.214 418.904 106.588C418.535 105.434 417.382 104.747 416.498 103.925C415.459 102.901 414.751 101.588 414.469 100.156C414.187 98.7249 414.342 97.2414 414.915 95.8996C413.479 96.1506 412.003 96.0543 410.611 95.6189C409.219 95.1834 407.952 94.4213 406.915 93.3963C405 91.4697 403.479 88.4141 400.754 88.5123C398.263 88.5859 396.116 91.4942 393.784 90.6107C393.208 90.3898 392.606 89.948 392.054 90.2057C391.872 90.3229 391.719 90.4798 391.606 90.6647C391.493 90.8497 391.424 91.0578 391.404 91.2733C390.815 94.108 391.833 97.3353 390.287 99.7896C388.606 102.452 384.716 102.821 382.679 105.226C381.575 106.526 381.145 108.281 380.127 109.656C379.108 111.03 376.961 111.914 375.733 110.711C376.334 109.479 376.499 108.079 376.2 106.742C375.901 105.404 375.157 104.207 374.089 103.348C372.959 102.606 371.738 102.012 370.457 101.581C369.025 100.977 367.664 100.22 366.395 99.3233C365.763 98.9382 365.249 98.3862 364.91 97.728C364.642 96.9004 364.677 96.0045 365.008 95.2002C365.63 93.4279 366.722 91.8585 368.169 90.6607C369.615 89.4628 371.361 88.682 373.218 88.4019C374.838 88.181 376.727 88.2547 377.807 87.0153C378.372 86.3649 378.666 85.3709 379.501 85.1133C380.026 85.0035 380.573 85.0681 381.059 85.2973C383.084 86.0091 385.096 86.7208 387.121 87.4325C387.796 87.7422 388.542 87.8651 389.281 87.7884C389.647 87.7412 389.981 87.5563 390.216 87.2714C390.451 86.9865 390.568 86.6229 390.545 86.2545C390.348 85.2483 388.802 84.7697 388.95 83.7512C389.021 83.4184 389.197 83.1173 389.453 82.8922C391.641 80.5642 394.317 78.7488 397.289 77.5756C400.261 76.4025 403.456 75.9007 406.645 76.1062C407.405 77.3701 406.203 78.8549 405.184 79.9225C404.178 81.0024 403.368 82.9167 404.595 83.7389C405.09 83.9985 405.644 84.1253 406.203 84.107C407.695 84.3072 409.145 84.7464 410.498 85.4078C412.596 86.3158 414.658 87.3221 416.67 88.4019C416.374 87.0863 416.425 85.7162 416.817 84.4261C417.039 83.7928 417.489 83.2647 418.079 82.9449C418.668 82.625 419.356 82.5362 420.008 82.6958C421.211 83.1621 421.824 84.7574 423.113 84.9046C424.818 85.101 425.493 82.5731 424.782 81.0024C424.07 79.4317 422.646 78.1309 422.536 76.4007C422.45 75.2472 422.892 73.8115 421.971 73.112C421.644 72.8952 421.27 72.7605 420.879 72.7193C413.173 71.3081 405.463 69.8928 397.748 68.4735C396.374 68.2158 394.398 68.4121 394.337 69.7988C394.3 70.5841 394.999 71.3572 394.692 72.0689C394.361 72.8298 393.281 72.7684 392.496 73.0384C391.906 73.306 391.419 73.7586 391.109 74.3276C390.799 74.8966 390.683 75.5511 390.778 76.1921C390.988 77.4681 391.483 78.6803 392.226 79.7384C390.717 79.1126 388.446 79.0022 386.937 78.3641C386.717 76.6164 386.272 74.9045 385.612 73.2715C385.574 73.0116 385.48 72.7631 385.336 72.5436C385.192 72.324 385.001 72.1387 384.778 72.0007C384.554 71.8627 384.303 71.7753 384.042 71.7447C383.782 71.714 383.517 71.741 383.268 71.8235C381.28 72.1303 379.292 72.4248 377.304 72.7316C376.805 72.7553 376.327 72.9405 375.942 73.2592C375.169 74.0814 375.93 75.3944 375.905 76.5234C375.833 77.1547 375.567 77.7479 375.142 78.2207C374.718 78.6934 374.157 79.0223 373.537 79.1617C372.288 79.4153 370.999 79.3986 369.757 79.1126C366.972 78.6831 364.198 78.2536 361.413 77.8241C363.872 77.0406 366.058 75.5771 367.72 73.6028C368.825 72.3021 369.414 69.8724 367.818 69.2589C367.347 69.1295 366.856 69.092 366.37 69.1484C362.591 69.1729 359.609 66.0192 356.075 64.6817C354.964 64.2671 353.788 64.0511 352.602 64.0436L348.651 68.8906Z" fill="#3F3D56"/>
<path id="Vector_24" d="M670.623 189.566C670.19 190.147 669.622 190.613 668.967 190.923C668.312 191.233 667.592 191.378 666.868 191.345C663.027 191.014 661.407 185.479 657.603 184.854C657.267 184.767 656.911 184.802 656.597 184.952C656.033 185.259 655.934 186.019 655.898 186.658C655.738 189.824 655.603 193.112 656.843 196.033C658.646 200.303 663.322 203.886 662.34 208.414C657.063 205.972 654.315 200.045 653.075 194.364C651.824 188.682 651.627 182.718 649.394 177.344C647.688 179.516 644.13 177.724 642.583 175.442C641.111 173.282 640.203 170.779 638.779 168.582C637.356 166.398 635.172 164.434 632.57 164.312C629.834 164.189 627.453 166.066 625.367 167.846C623.552 169.186 622.028 170.881 620.888 172.828C619.428 175.773 619.808 179.233 619.734 182.51C619.661 186.044 618.912 189.787 616.495 192.388C614.077 194.977 609.623 195.886 606.96 193.542C605.673 192.2 604.755 190.546 604.297 188.744C601.402 180.307 598.993 171.711 597.082 162.999C596.64 164.987 594.885 167.551 593.216 166.386C592.843 166.068 592.542 165.675 592.333 165.232C589.216 159.968 583.461 156.802 577.632 154.9C571.815 153.01 565.692 152.126 559.937 150.04C556.709 148.868 553.626 147.333 550.746 145.463C550.014 146.541 549.587 147.796 549.509 149.096C549.431 150.396 549.706 151.693 550.304 152.85C550.951 153.983 551.953 154.87 553.156 155.373C554.359 155.877 555.694 155.969 556.955 155.636C558.231 155.219 559.311 154.335 560.575 153.893C561.839 153.464 563.544 153.673 564.097 154.9C564.637 156.065 563.827 157.477 564.232 158.704C564.833 160.557 567.643 160.704 568.625 162.397C568.913 163.068 568.98 163.813 568.814 164.524C568.648 165.235 568.26 165.875 567.704 166.349C566.575 167.27 565.329 168.037 563.998 168.631C559.875 170.926 556.943 174.84 553.335 177.884C549.727 180.939 544.635 183.16 540.34 181.209C541.358 176.018 535.186 172.214 534.044 167.048C533.664 165.343 533.86 163.539 533.333 161.882C532.56 159.477 530.424 157.833 528.682 156.016C526.565 153.787 524.915 151.156 523.83 148.28C522.745 145.403 522.246 142.338 522.362 139.266C522.46 137.131 522.853 134.959 522.362 132.873C521.884 130.799 520.153 128.787 518.018 128.872C513.147 129.093 506.999 129.461 504.446 125.302C503.526 123.817 503.133 121.645 504.459 120.504C505.391 119.706 506.766 119.78 507.98 119.902C511.649 120.258 515.306 120.626 518.975 120.982C521.54 121.228 524.313 121.436 526.522 120.099C528.731 118.761 529.688 115.19 527.639 113.607C526.154 112.454 523.479 112.515 523.037 110.687C522.681 109.153 524.375 107.422 523.454 106.134C522.804 105.226 521.331 105.471 520.436 106.158C519.654 106.97 518.804 107.713 517.896 108.38C516.141 109.288 514.055 108.416 512.165 107.827C510.275 107.238 507.747 107.189 506.839 108.944C505.808 110.895 507.735 113.472 506.729 115.436C505.379 118.025 500.838 116.552 498.949 118.786C496.789 121.338 500.421 125.167 499.697 128.431C498.765 128.893 497.729 129.106 496.69 129.047C495.651 128.989 494.645 128.663 493.77 128.099C492.912 127.515 492.228 126.709 491.791 125.767C491.354 124.825 491.182 123.782 491.291 122.749C491.463 121.277 492.236 119.767 491.721 118.381C491.165 117.31 490.248 116.471 489.132 116.012C485.573 114.037 482.014 112.069 478.456 110.11C477.462 111.95 478.713 114.221 480.284 115.607C481.843 116.982 483.806 118.025 484.837 119.841C485.489 121.1 485.637 122.56 485.249 123.924C484.862 125.288 483.968 126.452 482.751 127.179C482.597 127.285 482.421 127.356 482.237 127.388C482.053 127.42 481.864 127.411 481.683 127.363C481.513 127.263 481.364 127.13 481.246 126.972C481.128 126.814 481.043 126.634 480.996 126.443C479.118 121.62 476.284 116.871 471.768 114.356C467.24 111.828 460.748 112.355 457.779 116.589C457.079 117.595 456.601 118.749 455.987 119.816C452.735 125.473 445.741 128.148 439.212 127.977C438.574 128.018 437.937 127.868 437.384 127.547C436.329 126.823 436.378 125.277 436.537 124.001C436.77 122.197 436.991 120.405 437.224 118.601C437.23 117.5 437.656 116.442 438.415 115.644C439.63 114.687 441.372 115.288 442.918 115.264C444.085 115.212 445.208 114.801 446.132 114.087C447.057 113.373 447.739 112.391 448.084 111.276C448.395 110.15 448.393 108.96 448.077 107.836C447.761 106.711 447.144 105.694 446.293 104.895C445.593 104.232 444.648 103.397 445.017 102.502C445.166 102.255 445.368 102.044 445.607 101.883C445.847 101.722 446.118 101.615 446.403 101.569C449.164 100.771 452.097 100.563 454.809 99.6057C457.533 98.6608 460.172 96.7219 460.822 93.9118C461.018 93.0528 461.104 92.0098 461.877 91.5803C462.268 91.4237 462.684 91.3404 463.104 91.3349C464.58 91.1234 465.923 90.3679 466.87 89.2167C467.817 88.0655 468.299 86.6019 468.221 85.1134C469.522 84.2053 471.351 84.8802 472.615 85.8496C473.866 86.8191 474.983 88.0953 476.517 88.5125C479.376 89.2978 482.137 86.7577 485.107 86.7454C486.358 86.7454 487.647 87.1872 488.813 86.7577C490.003 86.3282 490.715 85.1502 491.623 84.2789C492.543 83.3954 494.138 82.8677 494.985 83.8126C494.74 82.0333 494.506 80.2662 494.261 78.4992C495.707 78.8633 497.214 78.9136 498.68 78.647C500.147 78.3803 501.54 77.8027 502.765 76.953C499.673 75.9099 496.593 74.8669 493.5 73.8238C493.175 73.7438 492.876 73.5834 492.629 73.3575C491.954 72.6335 492.629 71.5046 493.169 70.6824C494.482 68.7067 494.703 65.4549 492.543 64.4732C491.071 63.7983 489.389 64.6082 487.978 65.3935C485.72 66.6452 483.462 67.9091 481.204 69.1608C480.996 70.4493 482.567 71.1855 483.536 72.0445C484.127 72.5685 484.545 73.2591 484.736 74.0254C484.926 74.7917 484.881 75.5978 484.604 76.3376C484.328 77.0773 483.834 77.7161 483.188 78.1698C482.542 78.6236 481.773 78.871 480.984 78.8796C481.428 79.4601 481.737 80.1329 481.888 80.8485C482.039 81.5641 482.028 82.3044 481.855 83.015C480.346 83.1254 478.824 83.2359 477.302 83.3463C477.049 83.3967 476.789 83.3966 476.537 83.3461C476.284 83.2955 476.044 83.1955 475.83 83.0518C475.339 82.6223 475.412 81.8615 475.29 81.2234C475.088 80.4607 474.662 79.776 474.067 79.2577C473.472 78.7393 472.735 78.411 471.952 78.3151C470.389 78.1393 468.806 78.2854 467.301 78.7446C466.647 78.9751 465.931 78.9576 465.289 78.6955C464.924 78.4545 464.649 78.1012 464.503 77.6893C464.236 76.8478 464.191 75.9517 464.371 75.0875C464.552 74.2233 464.952 73.4204 465.534 72.7563C466.713 71.4477 468.011 70.2521 469.412 69.1853C472.587 66.4055 474.921 62.7923 476.149 58.7548C478.652 57.6995 481.241 56.276 483.757 55.2207C485.779 54.2835 487.899 53.5715 490.077 53.0978C492.126 52.7847 494.203 52.686 496.274 52.8033C499.096 52.8523 501.931 52.9014 504.753 52.9628C507.272 52.8569 509.79 53.2189 512.177 54.0304C514.496 54.9876 516.546 57.0614 516.705 59.5647C516.753 59.85 516.728 60.1429 516.631 60.4156C516.535 60.6884 516.37 60.9319 516.153 61.1231C515.827 61.3033 515.457 61.3883 515.085 61.3686C512.742 61.4422 511.748 62.0312 509.404 62.1171C510.889 63.7001 512.557 65.369 514.717 65.6512C518.521 66.1421 521.258 62.203 523.013 58.7794C523.075 59.6508 523.476 60.4632 524.129 61.0433C524.783 61.6233 525.637 61.925 526.51 61.884C527.45 61.7223 528.347 61.3717 529.148 60.8532C536.696 56.7283 545.151 54.5439 553.752 54.4967C553.668 53.8455 553.828 53.1862 554.202 52.6466C554.576 52.107 555.137 51.7255 555.777 51.5762C557.531 51.2326 559.102 52.7419 559.949 54.3126C560.783 55.8833 561.311 57.6995 562.661 58.8775C563.998 60.0555 566.588 59.9942 567.115 58.3008C567.631 56.6687 565.925 55.2698 564.514 54.3004C563.09 53.3432 561.606 51.5639 562.563 50.1404C569.778 48.5328 577.055 46.9376 584.455 46.6185C585.712 46.6566 586.964 46.4395 588.136 45.9804C588.716 45.7348 589.199 45.3046 589.509 44.7565C589.82 44.2085 589.941 43.5733 589.854 42.9494C588.239 43.3263 586.549 43.2148 584.998 42.6293C583.447 42.0437 582.104 41.0105 581.141 39.6607C588.737 39.0349 596.689 38.4827 603.99 40.1884L610.384 45.6123C609.169 46.8762 607.549 48.0665 608.432 49.3305C608.724 49.6207 609.078 49.8411 609.466 49.975C609.855 50.1089 610.27 50.1529 610.678 50.1035C612.224 50.1281 613.77 50.1649 615.304 50.1649C647.045 80.5255 666.581 121.449 670.23 165.22C667.653 165.122 665.285 168.386 665.616 171.233C666.009 174.534 668.39 177.184 670.095 180.031C670.378 180.494 670.632 180.973 670.856 181.467L670.623 189.566Z" fill="#3F3D56"/>
<path id="Vector_25" d="M116.227 491.5C125.294 491.5 132.644 484.149 132.644 475.082C132.644 466.015 125.294 458.665 116.227 458.665C107.16 458.665 99.8099 466.015 99.8099 475.082C99.8099 484.149 107.16 491.5 116.227 491.5Z" fill="#6C63FF"/>
</g>
</g>
<defs>
<filter id="filter0_d_2_2" x="0" y="0" width="674.856" height="721.509" filterUnits="userSpaceOnUse" color-interpolation-filters="sRGB">
<feFlood flood-opacity="0" result="BackgroundImageFix"/>
<feColorMatrix in="SourceAlpha" type="matrix" values="0 0 0 0 0 0 0 0 0 0 0 0 0 0 0 0 0 0 127 0" result="hardAlpha"/>
<feOffset dy="4"/>
<feGaussianBlur stdDeviation="2"/>
<feComposite in2="hardAlpha" operator="out"/>
<feColorMatrix type="matrix" values="0 0 0 0 0 0 0 0 0 0 0 0 0 0 0 0 0 0 0.25 0"/>
<feBlend mode="normal" in2="BackgroundImageFix" result="effect1_dropShadow_2_2"/>
<feBlend mode="normal" in="SourceGraphic" in2="effect1_dropShadow_2_2" result="shape"/>
</filter>
<clipPath id="clip0_2_2">
<rect width="666.856" height="713.509" fill="white" transform="translate(4)"/>
</clipPath>
</defs>
</svg>
